<svg xmlns="http://www.w3.org/2000/svg" viewBox="0 0 32 32" width="32" height="32">
  <rect width="32" height="32" rx="8" fill="#FAF8F5" />
  <path
    d="M7 13h14v6a6 6 0 0 1-6 6h-2a6 6 0 0 1-6-6v-6z"
    fill="none"
    stroke="#845D3E"
    stroke-width="2"
    stroke-linecap="round"
    stroke-linejoin="round"
  />
  <path
    d="M21 14h2a3 3 0 0 1 3 3v0a3 3 0 0 1-3 3h-2"
    fill="none"
    stroke="#845D3E"
    stroke-width="2"
    stroke-linecap="round"
    stroke-linejoin="round"
  />
  <path
    d="M10 7c0 2 2 2 2 4M14 7c0 2 2 2 2 4M18 7c0 2 2 2 2 4"
    fill="none"
    stroke="#845D3E"
    stroke-width="1.5"
    stroke-linecap="round"
  />
  <line x1="5" y1="27" x2="23" y2="27" stroke="#845D3E" stroke-width="2" stroke-linecap="round" />
</svg>
